<svg xmlns="http://www.w3.org/2000/svg" width="1600" height="900" viewBox="0 0 1600 900">
  <rect width="1600" height="900" fill="#f8fbff"/>
  <circle cx="1460" cy="100" r="250" fill="#e9fbf9"/>
  <circle cx="150" cy="790" r="230" fill="#e9fbf9"/>
  <rect x="70" y="58" width="1460" height="784" rx="42" fill="#fff" stroke="#dfe9f0" stroke-width="6"/>
  <rect x="70" y="58" width="1460" height="96" rx="42" fill="#5fd3c6"/>
  <rect x="70" y="112" width="1460" height="42" fill="#5fd3c6"/>
  <text x="118" y="122" fill="#fff" font-size="34" font-family="Be Vietnam Pro, Nunito, Arial, sans-serif" font-weight="900">Tiếng Anh làm quen · Lớp 1</text>
  <text x="1430" y="122" fill="#fff" font-size="30" font-family="Be Vietnam Pro, Nunito, Arial, sans-serif" font-weight="800">5/7</text>
  <rect x="1140" y="220" width="300" height="250" rx="44" fill="#e9fbf9" stroke="#5fd3c6" stroke-width="5"/>
  <circle cx="1235" cy="315" r="54" fill="#5fd3c6" opacity=".9"/>
  <rect x="1300" y="284" width="74" height="116" rx="18" fill="#fff" opacity=".95"/>
  <path d="M1198 410c72-60 142-60 214 0" fill="none" stroke="#0e5c55" stroke-width="16" stroke-linecap="round"/>
  <rect x="118" y="206" width="945" height="158" rx="28" fill="#e9fbf9"/>
  <text x="154" y="274" fill="#0e5c55" font-size="58" font-family="Be Vietnam Pro, Nunito, Arial, sans-serif" font-weight="900">Luyện tập</text>
  <rect x="118" y="400" width="945" height="286" rx="30" fill="#fff" stroke="#e5edf2" stroke-width="4"/>
  <text x="154" y="466" fill="#17202a" font-size="38" font-family="Be Vietnam Pro, Nunito, Arial, sans-serif" font-weight="800">Bé nghe màu tiếng Anh rồi chỉ đồ vật đúng.</text>
  <rect x="118" y="718" width="1282" height="82" rx="26" fill="#e9fbf9" stroke="#5fd3c6" stroke-width="4"/>
  <text x="154" y="770" fill="#0e5c55" font-size="28" font-family="Be Vietnam Pro, Nunito, Arial, sans-serif" font-weight="900">Hoạt động:</text>
  <text x="330" y="770" fill="#24313b" font-size="26" font-family="Be Vietnam Pro, Nunito, Arial, sans-serif" font-weight="800">Làm chậm một lượt, sau đó thử làm nhanh hơn.</text>
</svg>