<svg xmlns="http://www.w3.org/2000/svg" width="1600" height="900" viewBox="0 0 1600 900">
  <rect width="1600" height="900" fill="#f8fbff"/>
  <circle cx="1480" cy="80" r="240" fill="#effbef"/>
  <circle cx="120" cy="790" r="240" fill="#effbef"/>
  <rect x="70" y="58" width="1460" height="784" rx="48" fill="#ffffff" stroke="#dde8ef" stroke-width="6"/>
  <rect x="70" y="58" width="1460" height="96" rx="48" fill="#82c97f"/>
  <rect x="70" y="112" width="1460" height="42" fill="#82c97f"/>
  <text x="118" y="122" fill="#ffffff" font-size="34" font-family="Be Vietnam Pro, Nunito, Arial, sans-serif" font-weight="900">Toán</text>
  <text x="1430" y="122" fill="#ffffff" font-size="30" font-family="Be Vietnam Pro, Nunito, Arial, sans-serif" font-weight="800">1/7</text>
  <g transform="translate(1200 248)"><rect x="0" y="0" width="214" height="168" rx="42" fill="#82c97f"/><circle cx="68" cy="84" r="28" fill="#fff"/><text x="114" y="108" font-size="72" font-weight="900" fill="#fff" font-family="Arial">5</text></g>
  <rect x="1140" y="210" width="300" height="260" rx="44" fill="#effbef" opacity="0.86"/>
  <rect x="118" y="206" width="945" height="158" rx="28" fill="#effbef"/>
  <text x="154" y="274" fill="#265f2b" font-size="58" font-family="Be Vietnam Pro, Nunito, Arial, sans-serif" font-weight="900">Các số từ 6 đến 10</text>
  <rect x="118" y="400" width="945" height="286" rx="30" fill="#ffffff" stroke="#e5edf2" stroke-width="4"/>
  <text x="154" y="466" fill="#17202a" font-size="38" font-family="Be Vietnam Pro, Nunito, Arial, sans-serif" font-weight="800">Toán lớp 1</text>
<text x="154" y="515" fill="#17202a" font-size="38" font-family="Be Vietnam Pro, Nunito, Arial, sans-serif" font-weight="800">Học bằng hình, nói bằng lời, chơi để nhớ</text>
<text x="154" y="564" fill="#17202a" font-size="38" font-family="Be Vietnam Pro, Nunito, Arial, sans-serif" font-weight="800">lâu.</text>
  <rect x="118" y="718" width="1282" height="82" rx="26" fill="#effbef" stroke="#82c97f" stroke-width="4"/>
  <text x="154" y="770" fill="#265f2b" font-size="28" font-family="Be Vietnam Pro, Nunito, Arial, sans-serif" font-weight="900">Hoạt động:</text>
  <text x="330" y="770" fill="#24313b" font-size="26" font-family="Be Vietnam Pro, Nunito, Arial, sans-serif" font-weight="800">Giáo viên hoặc phụ huynh đọc tên bài, bé nhắc lại chủ</text>
<text x="330" y="801" fill="#24313b" font-size="26" font-family="Be Vietnam Pro, Nunito, Arial, sans-serif" font-weight="800">đề.</text>
</svg>