<svg xmlns="http://www.w3.org/2000/svg" width="1600" height="900" viewBox="0 0 1600 900">
  <rect width="1600" height="900" fill="#f8fbff"/>
  <circle cx="1480" cy="80" r="240" fill="#f3eeff"/>
  <circle cx="120" cy="790" r="240" fill="#f3eeff"/>
  <rect x="70" y="58" width="1460" height="784" rx="48" fill="#ffffff" stroke="#dde8ef" stroke-width="6"/>
  <rect x="70" y="58" width="1460" height="96" rx="48" fill="#a98cff"/>
  <rect x="70" y="112" width="1460" height="42" fill="#a98cff"/>
  <text x="118" y="122" fill="#ffffff" font-size="34" font-family="Be Vietnam Pro, Nunito, Arial, sans-serif" font-weight="900">Mỹ thuật</text>
  <text x="1430" y="122" fill="#ffffff" font-size="30" font-family="Be Vietnam Pro, Nunito, Arial, sans-serif" font-weight="800">6/7</text>
  <g transform="translate(1200 248)"><circle cx="108" cy="84" r="74" fill="#a98cff"/><circle cx="70" cy="58" r="14" fill="#fff"/><circle cx="116" cy="42" r="14" fill="#fff"/><circle cx="150" cy="76" r="14" fill="#fff"/><path d="M98 142c24 4 40-6 44-24 6-28-32-28-44 24Z" fill="#fff"/></g>
  <rect x="1140" y="210" width="300" height="260" rx="44" fill="#f3eeff" opacity="0.86"/>
  <rect x="118" y="206" width="945" height="158" rx="28" fill="#f3eeff"/>
  <text x="154" y="274" fill="#49317a" font-size="58" font-family="Be Vietnam Pro, Nunito, Arial, sans-serif" font-weight="900">Trò chơi củng cố</text>
  <rect x="118" y="400" width="945" height="286" rx="30" fill="#ffffff" stroke="#e5edf2" stroke-width="4"/>
  <text x="154" y="466" fill="#17202a" font-size="38" font-family="Be Vietnam Pro, Nunito, Arial, sans-serif" font-weight="800">Tìm đồ vật có màu cô yêu cầu.</text>
  <rect x="118" y="718" width="1282" height="82" rx="26" fill="#f3eeff" stroke="#a98cff" stroke-width="4"/>
  <text x="154" y="770" fill="#49317a" font-size="28" font-family="Be Vietnam Pro, Nunito, Arial, sans-serif" font-weight="900">Hoạt động:</text>
  <text x="330" y="770" fill="#24313b" font-size="26" font-family="Be Vietnam Pro, Nunito, Arial, sans-serif" font-weight="800">Hoàn thành trò chơi, bé nhận 20-35 xu tùy mức độ cố</text>
<text x="330" y="801" fill="#24313b" font-size="26" font-family="Be Vietnam Pro, Nunito, Arial, sans-serif" font-weight="800">gắng.</text>
</svg>