<svg xmlns="http://www.w3.org/2000/svg" width="1600" height="900" viewBox="0 0 1600 900">
  <rect width="1600" height="900" fill="#f8fbff"/>
  <circle cx="1480" cy="80" r="240" fill="#e8f7ff"/>
  <circle cx="120" cy="790" r="240" fill="#e8f7ff"/>
  <rect x="70" y="58" width="1460" height="784" rx="48" fill="#ffffff" stroke="#dde8ef" stroke-width="6"/>
  <rect x="70" y="58" width="1460" height="96" rx="48" fill="#2fb8ff"/>
  <rect x="70" y="112" width="1460" height="42" fill="#2fb8ff"/>
  <text x="118" y="122" fill="#ffffff" font-size="34" font-family="Be Vietnam Pro, Nunito, Arial, sans-serif" font-weight="900">Tiếng Việt</text>
  <text x="1430" y="122" fill="#ffffff" font-size="30" font-family="Be Vietnam Pro, Nunito, Arial, sans-serif" font-weight="800">6/7</text>
  <g transform="translate(1200 248)"><path d="M0 0h170a44 44 0 0 1 44 44v124H44A44 44 0 0 1 0 124Z" fill="#2fb8ff"/><text x="58" y="102" font-size="72" font-weight="900" fill="#fff" font-family="Arial">A</text></g>
  <rect x="1140" y="210" width="300" height="260" rx="44" fill="#e8f7ff" opacity="0.86"/>
  <rect x="118" y="206" width="945" height="158" rx="28" fill="#e8f7ff"/>
  <text x="154" y="274" fill="#064d66" font-size="58" font-family="Be Vietnam Pro, Nunito, Arial, sans-serif" font-weight="900">Trò chơi củng cố</text>
  <rect x="118" y="400" width="945" height="286" rx="30" fill="#ffffff" stroke="#e5edf2" stroke-width="4"/>
  <text x="154" y="466" fill="#17202a" font-size="38" font-family="Be Vietnam Pro, Nunito, Arial, sans-serif" font-weight="800">Nghe cô đọc và chọn đúng dấu thanh.</text>
  <rect x="118" y="718" width="1282" height="82" rx="26" fill="#e8f7ff" stroke="#2fb8ff" stroke-width="4"/>
  <text x="154" y="770" fill="#064d66" font-size="28" font-family="Be Vietnam Pro, Nunito, Arial, sans-serif" font-weight="900">Hoạt động:</text>
  <text x="330" y="770" fill="#24313b" font-size="26" font-family="Be Vietnam Pro, Nunito, Arial, sans-serif" font-weight="800">Hoàn thành trò chơi, bé nhận 20-35 xu tùy mức độ cố</text>
<text x="330" y="801" fill="#24313b" font-size="26" font-family="Be Vietnam Pro, Nunito, Arial, sans-serif" font-weight="800">gắng.</text>
</svg>